<svg xmlns="http://www.w3.org/2000/svg" width="375" height="243" viewBox="0 0 375 243">
    <path fill="#EAAF0F" fill-rule="evenodd" d="M180.983 3l29.356 21.48 19.041 31.824c.53 6.895.794 11.934.794 15.116 2.38 4.773 11.9 10.342 17.454 13.525 25.781 8.512 45.115 19.332 58 32.46l-.52-.077c2.446.384 4.975.64 7.582.82 19.51 1.345 39.079 2.231 58.603 3.473 8.121.518 15.592-.195 23.03-2.811 3.74-1.315 9.286-2.31 12.828-1.337 14.492 3.978 29.01 2.48 43.668 1.477 11.434-.782 22.897-1.35 36.926-2.165 6.156-6.03 17.754-7.024 30.404-6.826 5.414.086 11.489-.815 16.213-2.614 10.972-4.176 22.08-6.766 33.671-4.953l55.326-21.209c13.028 9.028 25.21 17.47 36.454 25.264h31.489c-.044-.283-.085-.568-.127-.85l21.747-1.202-.117.435 13.638-2.76 12.868 7.57 16.423-3.13-1.21-1.218 40.328-24.189c10.745 11.117 28.311 10.133 44.594 13.541 4.788-1.272 10.388-2.759 17.251-4.58l46.366 21.763 20.137-8.495c3.887 1.33 7.603 2.598 12.735 4.352 9.872-2.17 20.524-4.759 31.385-6.806 7.197-1.357 14.677-2.604 22.067-2.712 11.434-.167 22.246-.817 32.224-5.361 9.688-4.414 19.932-8.228 30.225-12.425 3.983 3.589 7.673 6.916 11.308 10.195 27.41 7.748 27.41 7.748 51.709 5.94l19.413 8.979 21.256-3.094c15.364 9.448 30.743 5.807 45.59-2.213 6.771 1.934 14.17 2.741 18.883 5.66 10.24 6.342 21.532 6.802 31.07 6.001l52.524-28.438c22.452 17.95 56.444 22.011 81.411 36.356V442h-3180V121.7c4.937-1.239 9.95-2.347 14.789-3.75 8.682-2.517 17.054-5.632 25.923-7.747 17.806-4.25 35.86-7.994 56.597-12.56 12.829 2.69 28.153 7.943 45.036 6.302 3.777-1.652 7.1-3.48 10.848-4.624 2.934-.894 6.656-1.696 9.574-1.212 5.985.995 12.47 2.107 17.302 4.56 9.972 5.063 20.722 7.323 28.148 6.897l48.833 19.122c11.282-4.912 22.88-3.654 34.281-1.606 9.301 1.67 18.35 4.024 27.512 6.076l.668-1.223 11.246-3.49c3.77.936 7.322 1.818 10.872 2.702l.22-.973 1.72.147 23.599 2.022 38.267-16.805c22.906.333 42.238-7.791 55.016-20.126 15.475-2.361 28.232-4.251 40.94-6.282 4.005-.64 7.805-2.027 11.833-2.442 12.981-1.34 26.032-2.337 39.038-3.56 10.648-1.002 19.858.722 28.508 5.453 7.95 4.347 16.58 8.247 25.533 11.509 16.642 6.065 37.45 2.94 53.318 11.475 2.419 1.3 7.371.282 11.15.38 7.169.187 14.46-.108 21.48.718 17.445 2.05 34.743 4.69 52.138 6.957 16.373 2.134 31.415.98 46.434-5.419 12.968-5.524 28.11-8.56 41.753-12.539l37.558 17.898c4.535-1.22 8.03-2.16 11.521-3.101l-1.364-1.137c7.816-5.434 15.632-10.869 22.45-15.607l39.715 12.632 17.605 13.75 22.677 1.357c4.991-4.678 9.704-9.09 14.158-13.264l13.47-.988c1.904-12.534 12.78-19.406 28.906-22.79 11.146-2.34 22.394-4.44 33.974-6.721 4.58-2.975 9.727-6.318 14.404-9.354 19.239 4.106 32.886-8.57 49.73-4.323l4.787 1.317 51.057 14.04c16.134-4.34 30.26-8.142 44.981-12.103 5.043 0 10.993.035 16.942-.007 10.162-.073 21.063-1.907 30.34.046 22.927 4.824 45.354 3.765 68.412 1.473 17.485-1.738 35.398-7 52.907.496 1.432.612 3.773.537 5.578.322 16.551-1.967 29.878 6.212 45.536 6.11l17.142 26.236 2.276.57c5.223 1.306 9.865 2.466 14.505 3.628a184.68 184.68 0 0 0-.05-1.038l41.366-4.61c1.488-.88 4.044-2.391 6.135-3.625 4.428-.336 8.15-.62 11.227-.852l10.853-6.352c5.458 1.504 11.586 3.104 17.604 4.882 4.778 1.412 9.353 4.235 14.14 4.368 21.08.587 42.359 1.659 62.262-5.408 3.696-1.312 9-1.745 13.017-1.047 14.263 2.48 28.39 5.403 42.361 8.6 8.848 2.024 16.955 1.277 25.235-1.154 7.912-2.322 15.985-4.384 22.461-6.147l26.075 16.444c5.884-1.06 13.064-2.35 21.948-3.95l8.612 1.374 5.273-6.12c6.488 1.63 11.321 2.846 16.251 4.086l10.016-4.325c7.869 4.713 15.953 3.059 24.442.68l1.209-.338c8.671-2.399 17.54-4.414 27.326-2.643 10.707-8.508 26.3-14.964 46.776-19.37C180.987 77.723 211 89.531 211 97.404c0 7.872-65.134 5.712-63.567 24.404l-.034.012.101.179c1 7.667 15.5 29.167 43.5 64.5 4.5 5.678 8.212 10.586 11.136 14.723 34.017 2.126 82.407 2.198 87.364-8.223 3.478-7.313-86-45-88-46a.084.084 0 0 1-.047-.065c-24.22-10.05-35.01-18.514-32.37-25.394 3.967-10.342 32.913-12.729 41.64-15.911 8.727-3.182 13.103-5.57 9.93-12.73-2.116-4.773-16.397-9.016-42.843-12.729v-1.59l8.727-15.912v-14.32l8.727-12.73-6.347-15.116-7.934-6.365-7.933 7.956v11.934l-11.108 5.569-3.173 15.911-7.14 12.73-7.935 13.524H131l19.041-28.64 5.554-19.89 9.52-4.773v-9.547L180.984 3z"/>
</svg>
