<svg xmlns="http://www.w3.org/2000/svg" width="38" height="38" viewBox="0 0 38 38">
    <g fill="none" fill-rule="evenodd" >
        <g stroke-linecap="round" stroke-linejoin="round" stroke-width="1.5" transform="translate(1 10.161)">
            <path d="M26.463 24.968h6.247a3.097 3.097 0 0 0 3.096-3.097V8.891c0-1.46-1.02-2.723-2.448-3.029L26.97 4.493"/>
            <rect width="7.742" height="21.677" x=".194" y="4.839" rx="1.548"/>
            <path d="M15.2 4.57L7.936 6.388M28.413 9.54l-2.03-7.1A3.097 3.097 0 0 0 23.405.194h-4.617a3.097 3.097 0 0 0-2.977 2.246l-2.03 7.1M15.577 3.29h11.05"/>
            <circle cx="21.097" cy="16.452" r="10.065"/>
            <circle cx="21.097" cy="16.452" r="6.968"/>
            <path d="M7.935 24.968h7.795"/>
        </g>
        <path d="M27.71 7.258l2.122-2.387M15.122 7.258l-2.121-2.387M21.468 5.226V0"/>
    </g>
</svg>
