<svg xmlns="http://www.w3.org/2000/svg" fill="none" width="24" height="24" viewBox="0 0 24 24">
    <g fill-rule="evenodd">
        <path d="M0 0h24v24H0z"/>
        <path stroke="#FFF" stroke-linecap="round" stroke-linejoin="round" d="M17.466 19.5H21.5a2 2 0 0 0 2-2V9.117a2 2 0 0 0-1.581-1.956l-4.126-.884"/>
        <rect width="5" height="14" x=".5" y="6.5" stroke="#FFF" stroke-linecap="round" stroke-linejoin="round" rx="1"/>
        <path stroke="#FFF" stroke-linecap="round" stroke-linejoin="round" d="M10.192 6.327L5.5 7.5M18.725 9.536l-1.311-4.585A2 2 0 0 0 15.491 3.5h-2.982a2 2 0 0 0-1.923 1.451L9.275 9.536M10.435 5.5h7.136"/>
        <circle cx="14" cy="14" r="6.5" stroke="#FFF" stroke-linecap="round" stroke-linejoin="round"/>
        <circle cx="14" cy="14" r="4.5" stroke="#FFF" stroke-linecap="round" stroke-linejoin="round"/>
        <path stroke="#FFF" stroke-linecap="round" stroke-linejoin="round" d="M5.5 19.5h5.034"/>
    </g>
</svg>
