<svg xmlns="http://www.w3.org/2000/svg" width="36" height="36" viewBox="0 0 36 36">
    <g fill="none" fill-rule="evenodd" stroke-linecap="round" stroke-linejoin="round" stroke-width="1.5" transform="translate(0 1)">
        <circle cx="17.765" cy="3.5" r="3.375"/>
        <path d="M27.89 12.5h-4.564a2.25 2.25 0 0 1-1.005-.237l-5.8-2.901a2.25 2.25 0 0 0-3.14 1.3l-3.374 10.126a2.25 2.25 0 0 0 .121 1.718l1.557 3.114c.225.45.294.96.197 1.453l-.822 4.111a2.25 2.25 0 1 0 4.411.882l.822-4.109a6.768 6.768 0 0 0-.3-3.634l1.367.197a2.25 2.25 0 0 1 1.695 1.22l1.2 2.392a2.25 2.25 0 1 0 4.024-2.014l-1.2-2.392A6.763 6.763 0 0 0 18 20.063l-2.873-.41 1.701-5.1 3.482 1.74c.937.466 1.97.708 3.017.707h4.563a2.25 2.25 0 1 0 0-4.5z"/>
        <rect width="12.237" height="4.5" x="-1.122" y="10.028" rx=".75" transform="rotate(-71.565 4.996 12.278)"/>
        <path d="M31.265 8l2.25-2.25L34.639.125M27.89 21.5v2.25M34.64 33.875H5.39M20.015 33.875l2.252-4.5"/>
    </g>
</svg>
