<svg xmlns="http://www.w3.org/2000/svg" width="36" height="36" viewBox="0 0 36 36">
    <g fill="none" fill-rule="evenodd" stroke="#000" stroke-linecap="round" stroke-linejoin="round" stroke-width="1.5">
        <circle cx="18" cy="15.375" r="3.375"/>
        <path d="M18 20.25a4.5 4.5 0 0 0-4.5 4.5v3.75h2.25l.75 6.75h3l.75-6.75h2.25v-3.75a4.5 4.5 0 0 0-4.5-4.5z"/>
        <circle cx="6" cy="12.373" r="4.125"/>
        <path d="M10.784 21.082A5.25 5.25 0 0 0 .75 23.25v4.5H3l.75 7.5h4.5l.75-7.5h1.5"/>
        <circle cx="30" cy="12.373" r="4.125"/>
        <path d="M25.216 21.082A5.25 5.25 0 0 1 35.25 23.25v4.5H33l-.75 7.5h-4.5l-.75-7.5h-1.5M18.541 7.684a.75.75 0 0 1-1.082 0L14.348 4.44A2.16 2.16 0 1 1 17.4 1.383l.6.6.6-.6a2.16 2.16 0 0 1 3.46.563 2.162 2.162 0 0 1-.404 2.494l-3.114 3.244z"/>
    </g>
</svg>
