<svg xmlns="http://www.w3.org/2000/svg" fill="none" width="24" height="24" viewBox="0 0 24 24">
    <g fill-rule="evenodd">
        <path d="M0 0h24v24H0z" opacity=".8"/>
        <ellipse cx="12" cy="10.893" stroke="#FFF" stroke-linecap="round" stroke-linejoin="round" rx="1.84" ry="1.824"/>
        <path stroke="#FFF" stroke-linecap="round" stroke-linejoin="round" d="M13.075 9.413a4.676 4.676 0 0 0 1.275-2.89 6.961 6.961 0 0 0-1.979-4.148.5.5 0 0 0-.743.001A6.957 6.957 0 0 0 9.65 6.523a4.676 4.676 0 0 0 1.275 2.89"/>
        <path stroke="#FFF" stroke-linecap="round" stroke-linejoin="round" d="M10.925 9.413A4.681 4.681 0 0 0 8.57 7.308a6.959 6.959 0 0 0-4.556.6.5.5 0 0 0-.229.706 6.953 6.953 0 0 0 3.333 3.164 4.677 4.677 0 0 0 3.142-.32"/>
        <path stroke="#FFF" stroke-linecap="round" stroke-linejoin="round" d="M10.26 11.458a4.684 4.684 0 0 0-2.73 1.589 6.957 6.957 0 0 0-.837 4.519.5.5 0 0 0 .6.436 6.955 6.955 0 0 0 4.038-2.192c.574-.92.811-2.012.669-3.088"/>
        <path stroke="#FFF" stroke-linecap="round" stroke-linejoin="round" d="M12 12.722a4.682 4.682 0 0 0 .667 3.088A6.957 6.957 0 0 0 16.706 18a.5.5 0 0 0 .6-.436 6.963 6.963 0 0 0-.837-4.519 4.687 4.687 0 0 0-2.73-1.589"/>
        <path stroke="#FFF" stroke-linecap="round" stroke-linejoin="round" d="M13.74 11.458c.979.468 2.09.58 3.142.32a6.964 6.964 0 0 0 3.334-3.164.5.5 0 0 0-.23-.706 6.961 6.961 0 0 0-4.556-.6 4.681 4.681 0 0 0-2.355 2.105M14.75 17.376a10.112 10.112 0 0 1-2.368 5.432.5.5 0 0 1-.764 0 10.108 10.108 0 0 1-2.368-5.432M6.684 15.512c-1.98.403-4.035.203-5.9-.574a.5.5 0 0 1-.235-.726 10.1 10.1 0 0 1 4.433-3.931M5.964 7.265a10.111 10.111 0 0 1-1.276-5.787.5.5 0 0 1 .618-.448 10.1 10.1 0 0 1 5.108 3"/>
        <path stroke="#FFF" stroke-linecap="round" stroke-linejoin="round" d="M13.586 4.032a10.112 10.112 0 0 1 5.108-3 .5.5 0 0 1 .618.45 10.116 10.116 0 0 1-1.276 5.786M19.016 10.281a10.115 10.115 0 0 1 4.434 3.931.5.5 0 0 1-.237.726 10.1 10.1 0 0 1-5.9.574"/>
    </g>
</svg>
