<svg xmlns="http://www.w3.org/2000/svg" width="36" height="36" viewBox="0 0 36 36">
    <g fill="none" fill-rule="evenodd"  stroke-linecap="round" stroke-linejoin="round" stroke-width="1.5">
        <path d="M9.564 29.302S10.65 22.983 7.56 19.5a.486.486 0 0 1 .01-.657c1.067-1.167 3.77.032 6.49 5.017.709 1.301 2.191 1.233 3.48.498 2.448-1.396 5.7-5.038 7.95-5.608 2.953-.75 3.972 1.05 3.403 1.619L16.005 33.25l-6.441-3.948z"/>
        <path d="M14.007 35.25l1.998-2-6.441-3.948L4.16 35.25M35.188 17.25H.811M32.15 17.25c.013-.25.038-.497.038-.75 0-7.87-6.38-14.25-14.25-14.25S3.689 8.63 3.689 16.5c0 .253.024.5.038.75M17.189 2.25V.75"/>
    </g>
</svg>
