<svg xmlns="http://www.w3.org/2000/svg" width="128" height="128" viewBox="0 0 128 128">
    <g fill="none" fill-rule="evenodd">
        <path d="M0 0h128v125.388H0z" opacity=".2"/>
        <path fill="#FFF" fill-rule="nonzero" d="M64.005 125.388c-1.472 0-2.666-1.17-2.666-2.612V105.57l-8.779 8.61a2.692 2.692 0 0 1-1.888.763 2.692 2.692 0 0 1-1.888-.763 2.57 2.57 0 0 1-.779-1.844c0-.695.278-1.353.779-1.85l12.555-12.303v-9.357h-5.334c-1.472 0-2.666-1.17-2.666-2.612 0-1.442 1.194-2.613 2.666-2.613h5.334V67.224l-14.48 8.186 2.666 4.525a2.584 2.584 0 0 1-.976 3.568 2.7 2.7 0 0 1-1.333.35c-.95 0-1.835-.501-2.31-1.306l-2.666-4.524-8.277 4.68L29.365 99.5c-.309 1.14-1.37 1.939-2.576 1.939-.234 0-.469-.032-.693-.09a2.648 2.648 0 0 1-1.616-1.211 2.543 2.543 0 0 1-.267-1.986l3.216-11.75-15.21 8.605a2.7 2.7 0 0 1-1.334.35c-.949 0-1.834-.501-2.309-1.306a2.584 2.584 0 0 1 .976-3.568l15.216-8.605-12-3.145a2.634 2.634 0 0 1-1.621-1.217 2.54 2.54 0 0 1-.267-1.986c.31-1.144 1.37-1.938 2.57-1.938.235 0 .475.032.705.094L31.3 78.18l8.278-4.68-2.667-4.525a2.584 2.584 0 0 1 .976-3.569c.405-.23.87-.35 1.333-.35.95 0 1.835.502 2.31 1.306l2.666 4.52 14.475-8.187-14.48-8.187-2.667 4.525a2.687 2.687 0 0 1-2.309 1.306c-.464 0-.928-.12-1.333-.35a2.584 2.584 0 0 1-.976-3.569l2.666-4.524-8.277-4.687-17.152 4.504a2.802 2.802 0 0 1-.693.089 2.661 2.661 0 0 1-2.576-1.938 2.543 2.543 0 0 1 .266-1.986 2.652 2.652 0 0 1 1.622-1.217l12-3.15-15.206-8.595a2.59 2.59 0 0 1-.981-3.568 2.687 2.687 0 0 1 2.31-1.306c.463 0 .927.12 1.333.35l15.205 8.6-3.21-11.745c-.385-1.395.463-2.832 1.882-3.203.224-.057.459-.089.693-.089 1.2 0 2.262.794 2.571 1.939l4.603 16.791 8.277 4.686 2.667-4.53a2.703 2.703 0 0 1 3.648-.955 2.593 2.593 0 0 1 .976 3.568l-2.667 4.53 14.48 8.192v-16.38h-5.333c-1.472 0-2.667-1.17-2.667-2.611 0-1.442 1.195-2.613 2.667-2.613h5.333v-9.367L48.789 14.91a2.576 2.576 0 0 1 0-3.694 2.662 2.662 0 0 1 1.883-.768c.71 0 1.381.272 1.888.763l8.779 8.6v-17.2C61.339 1.17 62.533 0 64.005 0s2.667 1.17 2.667 2.612v17.204l8.779-8.599a2.684 2.684 0 0 1 1.888-.768c.709 0 1.381.272 1.888.763a2.576 2.576 0 0 1 0 3.693L66.672 27.204v9.367h5.333c1.472 0 2.667 1.17 2.667 2.613 0 1.442-1.195 2.612-2.667 2.612h-5.333v16.373l14.47-8.186-2.667-4.53a2.584 2.584 0 0 1 .976-3.568c.4-.23.864-.35 1.333-.35.95 0 1.835.501 2.31 1.306l2.671 4.53 8.283-4.682 4.603-16.796c.314-1.14 1.376-1.933 2.576-1.933.234 0 .469.03.693.094a2.612 2.612 0 0 1 1.61 1.217c.358.606.449 1.306.267 1.985l-3.221 11.75 15.21-8.6a2.7 2.7 0 0 1 1.334-.35c.95 0 1.835.502 2.31 1.307.357.606.453 1.311.266 1.985a2.57 2.57 0 0 1-1.243 1.583l-15.216 8.589 12.006 3.14a2.652 2.652 0 0 1 1.621 1.217c.357.606.448 1.306.267 1.98-.31 1.14-1.371 1.939-2.571 1.939a2.76 2.76 0 0 1-.688-.09l-17.168-4.492-8.272 4.676 2.667 4.53a2.584 2.584 0 0 1-.976 3.568 2.7 2.7 0 0 1-1.334.35c-.949 0-1.834-.502-2.309-1.306l-2.667-4.53-14.474 8.192 14.474 8.187 2.667-4.525a2.69 2.69 0 0 1 2.315-1.306c.464 0 .922.12 1.328.35.618.35 1.061.914 1.242 1.588.187.674.091 1.38-.266 1.98l-2.667 4.525 8.283 4.686 17.146-4.498c.224-.057.459-.089.694-.089 1.205 0 2.261.794 2.576 1.938a2.55 2.55 0 0 1-.267 1.98 2.656 2.656 0 0 1-1.616 1.218l-11.995 3.145 15.206 8.6c.618.35 1.056.914 1.242 1.588.187.674.091 1.379-.266 1.98a2.687 2.687 0 0 1-2.31 1.306 2.7 2.7 0 0 1-1.333-.35l-15.216-8.605 3.227 11.755c.384 1.39-.464 2.827-1.883 3.203a2.802 2.802 0 0 1-.693.089c-1.206 0-2.262-.794-2.576-1.933l-4.614-16.813-8.266-4.676-2.667 4.53a2.687 2.687 0 0 1-2.31 1.306 2.7 2.7 0 0 1-1.333-.35 2.584 2.584 0 0 1-.976-3.568l2.667-4.53-14.475-8.187v16.38h5.334c1.472 0 2.666 1.17 2.666 2.611 0 1.442-1.194 2.613-2.666 2.613h-5.334v9.367l12.555 12.299a2.576 2.576 0 0 1 0 3.693 2.682 2.682 0 0 1-1.888.763 2.692 2.692 0 0 1-1.888-.763l-8.779-8.6v17.195c-.005 1.441-1.2 2.612-2.672 2.612z"/>
    </g>
</svg>
