<svg xmlns="http://www.w3.org/2000/svg" width="40" height="35" viewBox="0 0 40 35">
    <g fill="none" fill-rule="evenodd">
        <path fill="#C6C6C6" fill-rule="nonzero" stroke="#C6C6C6" stroke-width=".567" d="M1.794 27.98a.794.794 0 0 1 0-1.587H16.87a.794.794 0 0 1 0 1.587H1.794zm4.76 3.174a.794.794 0 0 1 0-1.587h15.078a.794.794 0 0 1 0 1.587H6.555zm-4.76 3.174a.794.794 0 0 1 0-1.587H16.87a.794.794 0 0 1 0 1.587H1.794z"/>
        <path fill="#EAAF0F" fill-rule="nonzero" stroke="#EAAF0F" stroke-width=".567" d="M9.932 16.077a.796.796 0 0 1-.652-.34 6.306 6.306 0 0 1-1.038-4.747 6.311 6.311 0 0 1 2.621-4.09 6.315 6.315 0 0 1 3.627-1.13c1.308 0 2.561.391 3.625 1.13.358.25.447.747.198 1.105a.796.796 0 0 1-1.105.199 4.736 4.736 0 0 0-2.72-.85 4.742 4.742 0 0 0-4.683 3.915 4.73 4.73 0 0 0 .778 3.56.796.796 0 0 1-.651 1.248zM14.49 4.174a.794.794 0 0 1-.794-.793V1.794a.794.794 0 0 1 1.587 0V3.38a.794.794 0 0 1-.793.793zM8.318 6.73a.793.793 0 0 1-.562-.23l-1.12-1.123a.79.79 0 0 1-.232-.562.793.793 0 0 1 1.355-.562l1.122 1.122c.15.15.232.35.232.562a.793.793 0 0 1-.795.794zM4.174 12.903a.794.794 0 0 1 0-1.587h1.587a.794.794 0 0 1 0 1.587H4.174zM7.196 20.197a.793.793 0 0 1-.562-1.355l1.122-1.123a.79.79 0 0 1 .562-.231.793.793 0 0 1 .562 1.354l-1.122 1.122a.787.787 0 0 1-.562.233zM20.662 6.73a.793.793 0 0 1-.56-1.355l1.122-1.122a.79.79 0 0 1 .561-.231.793.793 0 0 1 .562 1.355L21.225 6.5a.799.799 0 0 1-.563.232z"/>
        <path fill="#E1E1E1" d="M27.972 29.567a.794.794 0 0 1 .008-1.587l4.89.046c2.56-.008 4.64-2.105 4.632-4.673a4.683 4.683 0 0 0-2.265-3.981.8.8 0 0 1-.343-.942 3.434 3.434 0 0 0-2.12-4.362 3.501 3.501 0 0 0-1.457-.172.793.793 0 0 1-.827-.527 6.457 6.457 0 0 0-6.092-4.321 6.452 6.452 0 0 0-6.44 6.453.793.793 0 0 1-.792.793 5.871 5.871 0 0 0-5.85 5.866.795.795 0 0 1-.794.794.794.794 0 0 1-.793-.794 7.45 7.45 0 0 1 6.676-7.413 7.997 7.997 0 0 1 5.35-6.837 8.052 8.052 0 0 1 2.654-.452c1.21 0 2.382.27 3.485.801a8.005 8.005 0 0 1 3.879 4.036 4.943 4.943 0 0 1 1.52.275 5.032 5.032 0 0 1 3.268 5.781 6.243 6.243 0 0 1 2.528 4.998 6.253 6.253 0 0 1-6.226 6.264h-.002l-4.89-.046z"/>
    </g>
</svg>
