<svg xmlns="http://www.w3.org/2000/svg" viewBox="0 0 24 24" ><path d="M12 23.999c-6.617 0-12-5.383-12-12s5.383-12 12-12 12 5.383 12 12-5.383 12-12 12zm0-23c-6.065 0-11 4.935-11 11s4.935 11 11 11 11-4.935 11-11-4.935-11-11-11z"/><path d="M9.001 16.69a.9988.9988 0 0 1-.315-.051c-.254-.085-.459-.262-.579-.501C8.037 16 8 15.844 8 15.69V8.308c0-.551.449-1 1-1 .154 0 .309.036.448.106l7.382 3.691c.239.12.417.325.501.579.084.254.065.525-.055.763-.095.191-.254.349-.446.446l-7.382 3.691c-.141.071-.292.106-.447.106zm-.001-1l7.382-3.691L9 8.308v7.382z"/></svg>
