<svg xmlns="http://www.w3.org/2000/svg" width="36" height="40" viewBox="0 0 36 40">
    <g fill="none" fill-rule="evenodd" stroke-linecap="round" stroke-linejoin="round" stroke-width="1.636">
        <path d="M28.666 17.96A10.67 10.67 0 0 1 18 28.637c-5.919-.098-10.653-4.949-10.607-10.868A10.4 10.4 0 0 1 17.571 7.373c.154-.006.308-.01.462-.01a10.575 10.575 0 0 1 10.633 10.598zM17.571 7.373c-5.549 6.012-5.549 13.857 0 21.257M18.49 7.373c5.551 6.012 5.551 13.854 0 21.254M7.364 18h21.272"/>
        <path d="M.818 6.177v12.497a20.145 20.145 0 0 0 13.45 18.766l1.834.677c1.225.45 2.57.45 3.796 0l1.835-.677a20.145 20.145 0 0 0 13.449-18.766V6.177a2.509 2.509 0 0 0-1.529-2.3A39.66 39.66 0 0 0 18 .818 39.66 39.66 0 0 0 2.347 3.877a2.509 2.509 0 0 0-1.529 2.3z"/>
    </g>
</svg>
