<svg xmlns="http://www.w3.org/2000/svg" fill="none" width="24" height="24" viewBox="0 0 24 24">
    <g  fill-rule="evenodd" stroke="#FFF" stroke-linecap="round" stroke-linejoin="round">
        <path d="M19.19 19.636c0 .557-.453 1.007-1.011 1.007H5.042c-.558 0-1.01-.45-1.01-1.007v-7.049l.505-6.042c0-1.112.905-2.014 2.02-2.014h10.106c1.116 0 2.021.902 2.021 2.014l.505 6.042v7.05zM19.19 12.587H4.031M9.59 4.531V.503M13.632 4.531V.503M7.063.503h9.095"/>
        <ellipse cx="8.074" cy="16.615" rx="1.516" ry="1.51"/>
        <ellipse cx="15.147" cy="16.615" rx="1.516" ry="1.51"/>
        <path d="M6.053 20.643L1 23.664M17.168 20.643l5.053 3.021"/>
    </g>
</svg>
