<svg xmlns="http://www.w3.org/2000/svg" width="30" height="36" viewBox="0 0 30 36">
    <g fill="none" fill-rule="evenodd" stroke-linecap="round" stroke-linejoin="round" stroke-width="1.5" transform="translate(1)">
        <circle cx="14.908" cy="4.5" r="3.75"/>
        <path d="M21.976 16.523c-4.694-.671-5.693-2.534-6.959-4.893l-.393-.724a2.25 2.25 0 0 0-4.149.548l-5.25 21a2.25 2.25 0 1 0 4.365 1.09l1.87-7.483c1.37 2.03 1.763 3.342 2.76 7.467a2.25 2.25 0 0 0 2.71 1.659 2.25 2.25 0 0 0 1.659-2.716c-1.553-6.416-2.084-7.295-5.718-12.075l.727-2.905a12.809 12.809 0 0 0 7.736 3.485 2.25 2.25 0 1 0 .636-4.453h.006zM27.657 14.25l-5.25 21M1.7 19.776a1.74 1.74 0 0 1-1.308-2.12l1.837-7.339a1.74 1.74 0 0 1 2.067-1.275l1.754.392a1.74 1.74 0 0 1 1.305 2.116L5.52 18.9a1.74 1.74 0 0 1-2.066 1.275L1.7 19.776zM1.772 12.15l5.143 1.15"/>
    </g>
</svg>
