<svg xmlns="http://www.w3.org/2000/svg" width="48" height="48" viewBox="0 0 48 48">
  <g fill-rule="evenodd">
    <path fill="currentColor" fill-rule="nonzero" d="M24,39 C15.73,39 9,32.27 9,24 C9,15.73 15.73,9 24,9 C32.27,9 39,15.73 39,24 C39,32.27 32.27,39 24,39 Z M24,11 C16.832,11 11,16.832 11,24 C11,31.168 16.832,37 24,37 C31.168,37 37,31.168 37,24 C37,16.832 31.168,11 24,11 Z M24,47 C23.448,47 23,46.552 23,46 L23,42 C23,41.448 23.448,41 24,41 C24.552,41 25,41.448 25,42 L25,46 C25,46.552 24.552,47 24,47 Z M42,25 C41.448,25 41,24.552 41,24 C41,23.448 41.448,23 42,23 L46,23 C46.552,23 47,23.448 47,24 C47,24.552 46.552,25 46,25 L42,25 Z M24,7 C23.448,7 23,6.552 23,6 L23,2 C23,1.448 23.448,1 24,1 C24.552,1 25,1.448 25,2 L25,6 C25,6.552 24.552,7 24,7 Z M2,25 C1.448,25 1,24.552 1,24 C1,23.448 1.448,23 2,23 L6,23 C6.552,23 7,23.448 7,24 C7,24.552 6.552,25 6,25 L2,25 Z M8.444,40.558 C8.176,40.558 7.926,40.454 7.736,40.266 C7.546,40.078 7.444,39.826 7.444,39.558 C7.444,39.29 7.548,39.04 7.736,38.85 L10.566,36.02 C10.754,35.832 11.006,35.728 11.274,35.728 C11.542,35.728 11.792,35.832 11.982,36.02 C12.172,36.208 12.274,36.46 12.274,36.728 C12.274,36.996 12.17,37.246 11.982,37.436 L9.152,40.266 C8.962,40.454 8.712,40.558 8.444,40.558 Z M39.556,40.556 C39.288,40.556 39.038,40.452 38.848,40.264 L36.02,37.436 C35.63,37.046 35.63,36.412 36.02,36.022 C36.208,35.834 36.46,35.73 36.728,35.73 C36.996,35.73 37.246,35.834 37.436,36.022 L40.264,38.85 C40.654,39.24 40.654,39.874 40.264,40.264 C40.074,40.452 39.824,40.556 39.556,40.556 Z M36.73,12.274 C36.462,12.274 36.212,12.17 36.022,11.982 C35.632,11.592 35.632,10.958 36.022,10.568 L38.85,7.74 C39.038,7.552 39.29,7.448 39.558,7.448 C39.826,7.448 40.076,7.552 40.266,7.74 C40.656,8.13 40.656,8.764 40.266,9.154 L37.438,11.98 C37.248,12.17 36.998,12.274 36.73,12.274 L36.73,12.274 Z M11.272,12.274 C11.004,12.274 10.754,12.17 10.564,11.982 L7.738,9.154 C7.348,8.764 7.348,8.13 7.738,7.74 C7.926,7.552 8.178,7.448 8.446,7.448 C8.714,7.448 8.962,7.55 9.152,7.74 L11.98,10.566 C12.37,10.956 12.37,11.59 11.98,11.98 C11.79,12.17 11.54,12.274 11.272,12.274 L11.272,12.274 Z"/>
  </g>
</svg>
