<svg xmlns="http://www.w3.org/2000/svg" width="48" height="48" viewBox="0 0 48 48">
  <g fill="none" fill-rule="evenodd">
    <rect width="48" height="48" opacity=".2"/>
    <path fill="#000" fill-rule="nonzero" d="M1,29.996 C0.448,29.996 0,29.548 0,28.996 C0,28.444 0.448,27.996 1,27.996 L37,27.996 C37.552,27.996 38,28.444 38,28.996 C38,29.548 37.552,29.996 37,29.996 L1,29.996 Z M7,35.996 C6.448,35.996 6,35.548 6,34.996 C6,34.444 6.448,33.996 7,33.996 L47,33.996 C47.552,33.996 48,34.444 48,34.996 C48,35.548 47.552,35.996 47,35.996 L7,35.996 Z M1,41.996 C0.448,41.996 0,41.548 0,40.996 C0,40.444 0.448,39.996 1,39.996 L37,39.996 C37.552,39.996 38,40.444 38,40.996 C38,41.548 37.552,41.996 37,41.996 L1,41.996 Z M42.736,25.996 C42.65,25.996 42.564,25.984 42.48,25.962 C41.946,25.82 41.628,25.272 41.77,24.74 C42.524,21.888 41.39,18.864 38.946,17.212 C38.548,16.942 38.398,16.428 38.588,15.986 C39.118,14.76 39.14,13.402 38.65,12.158 C38.158,10.916 37.212,9.94 35.988,9.41 C35.354,9.138 34.686,9 33.996,9 C33.79,9 33.584,9.012 33.38,9.038 C33.342,9.044 33.298,9.046 33.256,9.046 C32.85,9.046 32.476,8.79 32.326,8.408 C31.36,5.916 29.482,3.952 27.038,2.874 C25.75,2.306 24.394,2.018 23.006,2.018 C21.772,2.018 20.554,2.248 19.386,2.7 C15.814,4.086 13.382,7.318 13.042,11.134 C13,11.614 12.62,11.996 12.14,12.042 C9.752,12.266 7.594,13.408 6.064,15.254 C4.534,17.102 3.816,19.434 4.04,21.822 C4.13,22.78 4.372,23.712 4.758,24.592 C4.98,25.096 4.75,25.688 4.246,25.91 C4.116,25.966 3.982,25.994 3.844,25.994 C3.448,25.994 3.088,25.76 2.928,25.396 C2.456,24.32 2.16,23.18 2.05,22.01 C1.776,19.09 2.654,16.238 4.524,13.978 C6.212,11.938 8.552,10.59 11.148,10.154 C11.808,5.938 14.658,2.388 18.662,0.834 C20.062,0.292 21.524,0.016 23.006,0.016 C24.672,0.016 26.3,0.362 27.844,1.042 C30.54,2.232 32.678,4.34 33.9,7 L33.992,7 C34.958,7 35.896,7.194 36.778,7.576 C40.05,8.992 41.722,12.65 40.696,16.026 C43.43,18.244 44.608,21.824 43.7,25.252 C43.586,25.69 43.188,25.996 42.736,25.996 Z"/>
  </g>
</svg>
