<svg xmlns="http://www.w3.org/2000/svg" width="48" height="49" viewBox="0 0 48 49">
  <g fill="none" fill-rule="evenodd">
    <rect width="48" height="48" opacity=".2"/>
    <path fill="#000" fill-rule="nonzero" d="M3,48.004 C2.732,48.004 2.482,47.9 2.292,47.712 C2.102,47.524 2,47.27 2,47.004 C2,46.738 2.104,46.486 2.292,46.296 L12.292,36.296 C12.48,36.108 12.732,36.004 13,36.004 C13.268,36.004 13.518,36.108 13.708,36.296 C13.898,36.484 14,36.736 14,37.004 C14,37.272 13.896,37.522 13.708,37.712 L3.708,47.712 C3.518,47.9 3.266,48.004 3,48.004 Z M11,46.004 C10.732,46.004 10.482,45.9 10.292,45.712 C10.102,45.524 10,45.27 10,45.004 C10,44.738 10.104,44.486 10.292,44.296 L18.292,36.296 C18.48,36.108 18.732,36.004 19,36.004 C19.268,36.004 19.518,36.108 19.708,36.296 C19.898,36.484 20,36.736 20,37.004 C20,37.272 19.896,37.522 19.708,37.712 L11.708,45.712 C11.518,45.9 11.266,46.004 11,46.004 Z M15,48.004 C14.732,48.004 14.482,47.9 14.292,47.712 C14.102,47.524 14,47.27 14,47.004 C14,46.738 14.104,46.486 14.292,46.296 L24.292,36.296 C24.48,36.108 24.732,36.004 25,36.004 C25.268,36.004 25.518,36.108 25.708,36.296 C25.898,36.484 26,36.736 26,37.004 C26,37.272 25.896,37.522 25.708,37.712 L15.708,47.712 C15.518,47.9 15.266,48.004 15,48.004 Z M23,46.004 C22.732,46.004 22.482,45.9 22.292,45.712 C22.102,45.524 22,45.27 22,45.004 C22,44.738 22.104,44.486 22.292,44.296 L30.292,36.296 C30.48,36.108 30.732,36.004 31,36.004 C31.268,36.004 31.518,36.108 31.708,36.296 C31.898,36.484 32,36.736 32,37.004 C32,37.272 31.896,37.522 31.708,37.712 L23.708,45.712 C23.518,45.9 23.266,46.004 23,46.004 Z M27,48.004 C26.732,48.004 26.482,47.9 26.292,47.712 C26.102,47.524 26,47.27 26,47.004 C26,46.738 26.104,46.486 26.292,46.296 L36.292,36.296 C36.48,36.108 36.732,36.004 37,36.004 C37.268,36.004 37.518,36.108 37.708,36.296 C37.898,36.484 38,36.736 38,37.004 C38,37.272 37.896,37.522 37.708,37.712 L27.708,47.712 C27.518,47.9 27.266,48.004 27,48.004 Z M15,32.004 C9.348,31.98 4.662,27.722 4.098,22.102 C3.518,16.322 7.47,11.154 13.148,10.168 C13.806,5.95 16.658,2.398 20.664,0.844 C22.054,0.304 23.51,0.032 24.99,0.032 C29.7,0.032 33.946,2.76 35.902,7.01 L35.996,7.01 C36.958,7.01 37.894,7.204 38.776,7.584 C42.05,9 43.722,12.66 42.698,16.036 C44.776,17.734 46.006,20.316 46.0040024,23.01 C46.0040024,25.414 45.066,27.674 43.366,29.372 C41.666,31.07 39.406,32.006 37.004,32.006 L15,32.006 L15,32.004 Z M24.99,2.032 C23.758,2.032 22.544,2.26 21.386,2.71 C17.814,4.094 15.382,7.326 15.042,11.142 C15,11.62 14.622,12 14.146,12.048 C11.758,12.288 9.604,13.446 8.08,15.308 C6.556,17.172 5.85,19.512 6.088,21.9 C6.55,26.498 10.382,29.982 15.004,30.002 L37,30.002 C38.872,30.002 40.63,29.274 41.952,27.954 C43.274,26.632 44.0040026,24.874 44.0040026,23.006 C44.006,20.686 42.86,18.522 40.942,17.216 C40.546,16.946 40.396,16.432 40.586,15.992 C41.116,14.768 41.136,13.41 40.642,12.166 C40.15,10.922 39.204,9.948 37.982,9.418 C37.352,9.146 36.682,9.008 35.994,9.008 C35.79,9.008 35.582,9.02 35.38,9.046 C35.34,9.05 35.298,9.054 35.256,9.054 C34.848,9.054 34.474,8.798 34.324,8.418 C32.844,4.596 29.092,2.032 24.99,2.032 Z"/>
  </g>
</svg>
